<svg width="800" height="600" xmlns="http://www.w3.org/2000/svg">
 <!-- Created with Method Draw - http://github.com/duopixel/Method-Draw/ -->
 <g>
  <title>background</title>
  <rect fill="none" id="canvas_background" height="602" width="802" y="-1" x="-1"/>
  <g display="none" overflow="visible" y="0" x="0" height="100%" width="100%" id="canvasGrid">
   <rect fill="url(#gridpattern)" stroke-width="0" y="0" x="0" height="100%" width="100%"/>
  </g>
 </g>
 <g>
  <title>Layer 1</title>
  <path id="svg_4" d="m322.72962,241.13904c-2.97429,14.0608 -10.57166,27.49886 -11.08324,41.99825c0.6807,8.39513 -6.06509,12.90454 -15.29988,12.74578c-9.9323,8.59585 1.22595,22.18065 12.4641,25.65054c11.46917,6.42761 25.69749,-0.75456 37.05875,5.01126c15.08586,9.84591 21.38386,27.30292 16.17926,42.60721c-5.17478,12.63372 21.31459,8.03895 11.35105,-2.06016c-7.69523,-9.8711 14.50606,-6.60752 8.8224,2.76418c-1.07399,7.52287 6.64632,9.95784 3.21053,17.24613c8.95081,4.2851 -0.75032,6.6844 -6.2022,7.49349c-12.76706,5.31364 2.30931,-9.51855 -7.80474,-13.90562c-9.26193,1.6806 -2.98602,14.62985 -6.16514,13.13423c-6.54475,-4.2788 -6.53992,-20.276 -17.52424,-9.83801c-3.64558,-12.86144 3.0061,-26.25611 -2.11797,-39.04289c2.09903,-9.54933 -15.95943,-12.84316 -13.67536,-1.76754c0.91054,16.90374 -5.23745,33.77382 -1.70894,50.59428c4.85975,10.37472 18.4517,15.0484 26.98239,23.05428c7.00602,6.17299 16.08871,12.77291 26.99319,10.82944c12.36796,-0.44761 24.75872,-1.40128 37.07088,0.23817c15.48619,0.4078 27.30797,-9.81225 40.52386,-15.06204c15.53631,-10.29986 13.09016,-28.69755 11.54139,-43.35221c-1.8991,-9.04764 2.26824,-18.0994 1.49162,-27.06236c-11.20084,-11.44231 -20.39062,8.66984 -17.1999,17.31069c-0.00078,10.86953 2.49934,24.87135 -9.91958,31.95186c-10.24895,-0.21577 -20.003,2.89236 -30.331,1.26725c-8.38059,4.15512 -21.95508,4.04842 -24.72134,-5.84297c-1.10441,-8.78421 3.66287,-17.99357 -2.81454,-26.19169c5.69118,4.09242 15.62053,-3.53449 10.08681,5.64045c-6.74954,7.46838 5.71525,18.97667 10.40766,7.95322c1.55681,-7.3961 -6.73408,-17.2123 6.8944,-15.62774c2.77932,2.60882 -9.49114,20.85749 7.2818,16.24585c11.9582,-2.18695 -2.12746,-17.84843 14.06627,-17.90285c7.83718,-7.70335 5.72703,-22.14229 17.7151,-27.98629c13.36662,-7.55247 34.23644,-2.09989 43.77673,-14.88996c8.13177,-6.54515 4.30499,-24.68615 -9.71936,-18.67516c-17.52591,1.42644 -3.61666,-19.81851 -4.10566,-27.77923c4.12941,-6.93351 -5.01485,-21.52852 -1.86607,-23.07699c5.94971,7.60015 8.08066,16.48936 6.8011,25.37138c-0.10996,7.53224 -3.93591,27.94564 8.60638,15.36173c4.2459,-8.76988 3.01102,-18.70334 6.03601,-27.82738c5.83441,-19.69857 -4.61222,-39.40809 -16.25826,-56.09266c-9.91874,-8.9821 -22.51085,-16.1423 -34.3358,-23.19211c-19.88999,-6.24562 -41.85163,-7.3645 -62.85851,-5.7992c-18.58142,2.68906 -38.23121,5.52408 -53.03368,16.10164c-14.42627,7.09695 -28.24246,16.52279 -33.94575,30.15951c-4.97018,10.98575 -13.67361,22.17337 -9.71798,34.37695c3.78303,10.17305 1.77659,20.73812 2.3891,31.13601c6.44893,11.88376 12.53751,-6.08099 11.93399,-12.02314c0.35701,-11.26822 7.47756,-21.24223 12.72439,-31.24554l-0.00001,-0.00002zm118.44938,24.17448c13.26178,0.79341 30.05321,6.95927 30.41513,19.81387c2.01652,12.89993 -10.46796,25.40409 -26.46715,24.13906c-14.5324,-0.99663 -23.8267,-11.47717 -22.86171,-23.26028c-4.8654,-8.44861 2.70602,-17.49719 12.86757,-19.43938c1.97053,-0.55322 3.99601,-0.96731 6.04616,-1.25328l0,0.00001zm-89.49473,1.09874c15.38465,-2.28436 32.88846,5.68392 32.93983,19.90195c1.44493,13.74507 -16.03368,16.438 -27.95682,19.88134c-8.25027,4.44763 -16.82035,0.30656 -23.67568,-4.17457c-8.89445,-7.7728 -6.28016,-23.43616 3.11147,-30.53139c4.55418,-2.81404 10.19188,-3.92025 15.58119,-5.07732zm52.644,36.26067c7.44789,8.54672 16.38914,21.5799 6.75741,31.2801c-8.55034,5.72519 -9.62832,-8.14347 -18.60272,-1.61191c-8.41904,-6.15608 -0.65407,-18.68309 5.25321,-24.93691c1.94701,-1.80087 4.17504,-3.38632 6.59211,-4.73129z" stroke-opacity="null" stroke-width="0" stroke="#000" fill="#ffffff"/>
  <path transform="rotate(-28 236.167022705078,378.0048522949218) " id="svg_5" d="m224.1475,486.43822c-25.65426,-3.73233 -47.62008,-20.43533 -54.27774,-41.59054c-3.1664,-10.79853 -1.31239,-22.12703 -1.93643,-33.1599c-0.11771,-28.32299 -0.17784,-56.64614 -0.2663,-84.9692c3.01227,-8.79174 15.72643,-13.41572 25.39813,-9.06906c0.84136,-2.3095 0.22467,-6.45135 0.51959,-9.45158c-1.71515,-8.24633 5.29849,-16.63487 15.48531,-17.19292c5.84599,-0.03188 12.84505,3.6938 10.18081,-4.55636c-1.80641,-8.49715 6.14647,-18.17559 17.02364,-17.39232c10.3944,-0.80893 18.28777,8.06159 17.03362,16.28402c0.48352,4.90862 13.15839,-3.21628 17.58919,2.2407c5.65118,2.81261 9.51679,8.17924 8.44962,13.72769c0.32759,15.19937 -0.44129,30.49509 0.82423,45.62127c9.29429,-3.94554 22.53746,0.90238 24.44109,9.58245c-0.21054,26.96779 0.53668,53.95461 -0.56546,80.90688c-3.74126,27.72318 -35.18237,51.16693 -68.74779,49.50194c-3.71954,0.0083 -7.47161,0.03896 -11.15152,-0.48306l0.00001,0.00001zm22.952,-7.36382c28.17547,-3.99312 50.3409,-26.83686 48.75354,-50.85799c0.21545,-23.21702 1.09163,-46.4682 0.06572,-69.66954c-0.65555,-8.48287 -17.42433,-6.42923 -16.34017,1.39812c-0.00511,17.20731 -0.01025,34.41462 -0.01541,51.62193c-5.22095,4.5151 -14.56583,1.79567 -20.82639,5.46525c-13.91783,5.09229 -22.76143,17.56195 -23.06478,30.11716c-7.50657,9.76102 -10.90503,-6.12442 -6.59925,-11.35777c4.978,-15.78586 22.49485,-27.5641 41.73541,-29.1108c-0.15741,-36.31645 0.40757,-72.64598 -0.50554,-108.95191c-5.44763,-10.28429 -20.71271,-1.264 -16.64992,7.74162c-0.40027,27.4568 -0.04163,54.92001 -0.60185,82.37486c-3.63869,4.88162 -10.53355,0.25205 -8.28457,-4.25296c-0.15544,-34.3936 -0.31092,-68.7872 -0.46638,-103.1808c-2.91952,-6.07415 -15.85394,-5.12515 -16.05751,1.54145c-0.1599,35.49346 -0.31981,70.9869 -0.47973,106.48036c-3.40352,4.02076 -10.39443,0.52502 -8.51182,-3.86392c-0.12572,-26.73593 0.3499,-53.48343 -0.48125,-80.20979c-0.21263,-7.95481 -16.09566,-7.7578 -16.30763,-0.38052c-0.31767,27.40552 0.08512,54.82571 -0.87139,82.21932c0.90054,6.97752 -10.81902,3.64918 -8.11873,-1.62901c-0.14319,-18.62287 0.39025,-37.26619 -0.51549,-55.87213c-5.34192,-11.48035 -21.31683,-2.00254 -16.86209,7.53948c0.05358,33.02306 -0.35895,66.06256 0.63691,99.07538c2.44306,25.36428 31.56155,46.2494 61.85321,44.58259c2.85706,-0.09984 5.7056,-0.37345 8.51511,-0.82037l-0.00001,-0.00001z" stroke-opacity="null" stroke-width="0" stroke="#000" fill="#ffffff"/>
  <path transform="rotate(28 567.2612304687501,377.79598999023443) " stroke="#000" id="svg_7" d="m579.19304,486.22936c25.46702,-3.73234 47.27251,-20.43533 53.88158,-41.59054c3.14329,-10.79853 1.30281,-22.12704 1.9223,-33.1599c0.11685,-28.32299 0.17654,-56.64614 0.26436,-84.9692c-2.99028,-8.79174 -15.61165,-13.41572 -25.21275,-9.06906c-0.83521,-2.3095 -0.22302,-6.45135 -0.51579,-9.45158c1.70262,-8.24633 -5.25982,-16.63487 -15.3723,-17.19292c-5.80332,-0.03188 -12.75129,3.69379 -10.1065,-4.55636c1.79323,-8.49715 -6.10161,-18.17559 -16.89939,-17.39232c-10.31853,-0.80893 -18.15429,8.06159 -16.9093,16.28401c-0.47999,4.90862 -13.06235,-3.21627 -17.46082,2.24071c-5.60992,2.81261 -9.44733,8.17923 -8.38794,13.72768c-0.3252,15.19937 0.43807,30.4951 -0.81821,45.62127c-9.22644,-3.94554 -22.37296,0.90239 -24.26269,9.58245c0.209,26.96779 -0.53276,53.95461 0.56133,80.90688c3.71395,27.72318 34.92558,51.16693 68.24601,49.50193c3.69239,0.0083 7.41708,0.03897 11.07012,-0.48306l-0.00001,0.00001zm-22.78447,-7.36382c-27.96982,-3.99312 -49.97347,-26.83686 -48.3977,-50.858c-0.21388,-23.21701 -1.08366,-46.4682 -0.06525,-69.66954c0.65077,-8.48286 17.29715,-6.42923 16.22091,1.39812c0.00507,17.20731 0.01018,34.41462 0.0153,51.62193c5.18284,4.5151 14.45952,1.79567 20.67438,5.46525c13.81625,5.0923 22.59529,17.56196 22.89644,30.11716c7.45178,9.76101 10.82544,-6.12442 6.55108,-11.35777c-4.94167,-15.78586 -22.33067,-27.5641 -41.43079,-29.1108c0.15626,-36.31645 -0.4046,-72.64598 0.50184,-108.95191c5.40787,-10.28429 20.56153,-1.264 16.52841,7.74162c0.39734,27.4568 0.04133,54.92001 0.59746,82.37486c3.61213,4.88162 10.45667,0.25205 8.2241,-4.25295c0.15431,-34.3936 0.30865,-68.7872 0.46297,-103.18081c2.89821,-6.07414 15.73824,-5.12514 15.94031,1.54145c0.15874,35.49346 0.31748,70.9869 0.47623,106.48036c3.37868,4.02076 10.31857,0.52502 8.44969,-3.86392c0.1248,-26.73593 -0.34735,-53.48342 0.47774,-80.20979c0.21109,-7.9548 15.97819,-7.75779 16.18861,-0.38052c0.31534,27.40552 -0.0845,54.82571 0.86503,82.21932c-0.89397,6.97752 10.74005,3.64918 8.05947,-1.62901c0.14214,-18.62286 -0.3874,-37.26618 0.51173,-55.87213c5.30293,-11.48035 21.16124,-2.00253 16.73901,7.53949c-0.05319,33.02305 0.35633,66.06256 -0.63225,99.07537c-2.42523,25.36429 -31.33119,46.2494 -61.40177,44.58259c-2.8362,-0.09983 -5.66396,-0.37345 -8.45295,-0.82036l0.00001,-0.00001z" stroke-opacity="null" stroke-width="0" fill="#ffffff"/>
 </g>
</svg>